<svg xmlns="http://www.w3.org/2000/svg" xmlns:xlink="http://www.w3.org/1999/xlink" id="Layer_1" x="0" y="0" version="1.1" viewBox="0 0 180 180" xml:space="preserve" style="enable-background:new 0 0 180 180"><style type="text/css">.st0{fill:none;stroke:#fff;stroke-width:.25;stroke-miterlimit:10;stroke-opacity:0}.st1{fill:#fff}.st2{fill:none}</style><rect width="180" height="180" y="0" class="st0"/><g><g><path d="M126.7,74.7l22.1,13.7l-22.1,13.7c1.6-4.3,2.5-8.9,2.5-13.7S128.3,79,126.7,74.7 M53.6,74.7 C52,79,51,83.6,51,88.5c0,4.8,0.9,9.4,2.5,13.7L31.5,88.5L53.6,74.7z M90.1,57.5c17.1,0,30.9,13.8,30.9,30.9 c0,17.1-13.8,30.9-30.9,30.9c-17.1,0-30.9-13.8-30.9-30.9S73,57.5,90.1,57.5 M90.1,42.5l-3.8,2.4l-15.1,9.4 c-1.1,0.6-2.1,1.3-3.1,2L16.2,88.5L68,120.7c1,0.7,2.1,1.4,3.2,2l18.9,11.7l18.6-11.6c0,0,0.1-0.1,0.1-0.1 c1.2-0.6,2.3-1.3,3.4-2.1l51.8-32.1l-51.8-32.2c-1-0.7-2.1-1.4-3.2-2L90.1,42.5z" class="st1"/></g><rect width="148.3" height="95" x="16" y="40.6" class="st2"/><g><path d="M171.6,95.8c-2.4,0-5,0.7-7.6,2.2l-66.3,41.2l0.7,0.4c1.9,1.1,4.3,1.8,7,1.8c2.4,0,5-0.7,7.6-2.2l13-8.1 l53.2-33.1l-0.7-0.4C176.8,96.5,174.4,95.7,171.6,95.8" class="st1"/></g><rect width="83.4" height="48.7" x="97.1" y="93.9" class="st2"/><g><path d="M74.8,35.6c-2.4,0-5,0.7-7.6,2.2l-13,8.1L0.9,79c3.4,2.3,9.3,3.5,15.3,0l66.3-41.2l-0.7-0.4 C79.9,36.3,77.5,35.5,74.8,35.6" class="st1"/></g><rect width="83.4" height="48.7" x="-.2" y="33.7" class="st2"/></g></svg>