<svg xmlns="http://www.w3.org/2000/svg" xmlns:xlink="http://www.w3.org/1999/xlink" id="Layer_1" x="0" y="0" version="1.1" viewBox="0 0 120.2 120.2" xml:space="preserve" style="enable-background:new 0 0 120.2 120.2"><style type="text/css">.st0{fill:#cf0}.st1{fill:#1cd8d2}.st2{fill:#a4efed}.st3,.st4{fill:none;stroke:#ebff99;stroke-width:3;stroke-linecap:round;stroke-miterlimit:10}.st4{fill:#cf0;stroke:#cf0;stroke-width:5}</style><circle cx="59.9" cy="60.1" r="60.1"/><path d="M52.5,54.7c-5.5,0-10.7,1.7-15,4.5l1.2,6.9c3.7-3.2,8.5-5.2,13.8-5.2c11.6,0,21.1,9.5,21.1,21.1	s-9.5,21.1-21.1,21.1c-11.6,0-21.1-9.5-21.1-21.1c0-1.6,0.2-3.1,0.5-4.5l-1.9-11c-3,4.4-4.9,9.8-4.9,15.5	c0,15.1,12.3,27.3,27.3,27.3s27.2-12.3,27.2-27.3S67.5,54.7,52.5,54.7z" class="st0"/><g><g><path d="M50.6,97.7c2.1,0,3.7-1.7,3.7-3.7s-1.7-3.7-3.7-3.7s-3.7,1.7-3.7,3.7C46.9,96,48.6,97.7,50.6,97.7z" class="st1"/><path d="M60.9,93.9c2.1,0,3.7-1.7,3.7-3.7s-1.7-3.7-3.7-3.7s-3.7,1.7-3.7,3.7C57.2,92.3,58.8,93.9,60.9,93.9z" class="st1"/><path d="M52.1,86.5c2.1,0,3.7-1.7,3.7-3.7S54.1,79,52.1,79s-3.7,1.7-3.7,3.7C48.4,84.8,50,86.5,52.1,86.5z" class="st1"/><path d="M40.3,90.2c2.1,0,3.7-1.7,3.7-3.7c0-2.1-1.7-3.7-3.7-3.7c-2.1,0-3.7,1.7-3.7,3.7 C36.5,88.5,38.2,90.2,40.3,90.2z" class="st1"/><path d="M64.6,81.5c2.1,0,3.7-1.7,3.7-3.7s-1.7-3.7-3.7-3.7s-3.7,1.7-3.7,3.7S62.5,81.5,64.6,81.5z" class="st1"/><path d="M57.2,73.6c2.1,0,3.7-1.7,3.7-3.7s-1.7-3.7-3.7-3.7c-2.1,0-3.7,1.7-3.7,3.7S55.1,73.6,57.2,73.6z" class="st1"/></g><path d="M44,77.4c2.1,0,3.7-1.7,3.7-3.7c0-2.1-1.7-3.7-3.7-3.7c-2.1,0-3.7,1.7-3.7,3.7C40.3,75.7,41.9,77.4,44,77.4z" class="st1"/></g><circle cx="57.2" cy="69.9" r="1.8" class="st2"/><circle cx="60.9" cy="90.2" r="1.8" class="st2"/><circle cx="64.6" cy="77.8" r="1.8" class="st2"/><circle cx="44" cy="73.6" r="1.8" class="st2"/><circle cx="40.3" cy="86.5" r="1.8" class="st2"/><circle cx="52.1" cy="82.7" r="1.8" class="st2"/><circle cx="50.6" cy="93.9" r="1.8" class="st2"/><circle cx="52.4" cy="82.1" r="24.5" class="st3"/><polygon points="38.7 66.1 32.2 79.6 29.5 63.2 37.5 59.2"/><g><path d="M36.3,81c-1.7,0-3.1-1.2-3.4-2.9L23.2,21c-0.2-0.9,0.1-1.8,0.6-2.6s1.4-1.2,2.3-1.4c1.9-0.3,3.7,1,4,2.9 l9.7,57.1c0.2,0.9-0.1,1.8-0.6,2.6c-0.5,0.8-1.4,1.2-2.3,1.4C36.6,81,36.4,81,36.3,81z" class="st0"/><line x1="26.5" x2="36.3" y1="20.5" y2="77.4" class="st3"/></g><line x1="92.7" x2="92.7" y1="35.9" y2="62" class="st4"/><line x1="92.7" x2="92.7" y1="35.9" y2="62" class="st3"/><line x1="79.7" x2="105.8" y1="48.9" y2="48.9" class="st4"/><line x1="79.7" x2="105.8" y1="48.9" y2="48.9" class="st3"/></svg>